# xmcd
#
# Track frame offsets:
#	150
#	12606
#	24354
#	38788
#	53745
#	76339
#	94333
#	105184
#	127088
#	149881
#
# Disc length: 2222 seconds
#
# Revision: 0
# Processed by: cddbd v1.5.2PL0 Copyright (c) Steve Scherf et al.
# Submitted via: EasyCDDAExtractor 15.2.0.1
#
DISCID=8308ac0a
DTITLE=Carl D. - What I'm After
DYEAR=2008
DGENRE=Country
TTITLE0=What I'm After
TTITLE1=Tip of My Tongue
TTITLE2=Cowboy Chance
TTITLE3=Beauty of the Storm
TTITLE4=The Keepers of the Wall
TTITLE5=You Can't Break a Broken Heart
TTITLE6=What I See from this Barstool
TTITLE7=Holding on for Eight
TTITLE8=More than Lovers
TTITLE9=I'll Drink to That
EXTD=
EXTT0=
EXTT1=
EXTT2=
EXTT3=
EXTT4=
EXTT5=
EXTT6=
EXTT7=
EXTT8=
EXTT9=
PLAYORDER=
